<svg width="19" height="19" viewBox="0 0 19 19" fill="none" xmlns="http://www.w3.org/2000/svg">
<path d="M13.0625 9.49998C13.0625 8.96165 13.015 8.43915 12.9516 7.91665H15.6275C15.7541 8.42331 15.8333 8.95373 15.8333 9.49998C15.8333 9.7929 15.8096 10.0779 15.77 10.355C16.3162 10.4341 16.8229 10.6083 17.29 10.8616C17.3691 10.4183 17.4166 9.96706 17.4166 9.49998C17.4166 5.14581 13.8541 1.58331 9.49998 1.58331C5.12206 1.58331 1.58331 5.14581 1.58331 9.49998C1.58331 13.8541 5.14581 17.4166 9.49998 17.4166C9.96706 17.4166 10.4183 17.3691 10.8616 17.29C10.4856 16.6004 10.2896 15.8271 10.2916 15.0416C10.2916 14.8121 10.3154 14.5904 10.3471 14.3687C10.0937 14.8675 9.81665 15.3504 9.49998 15.8016C8.8429 14.8516 8.31248 13.7987 7.9879 12.6666H10.9329C11.4084 11.8404 12.1233 11.1779 12.9833 10.7666C13.0308 10.3471 13.0625 9.92748 13.0625 9.49998M9.49998 3.1904C10.1571 4.1404 10.6875 5.20123 11.0121 6.33331H7.9879C8.31248 5.20123 8.8429 4.1404 9.49998 3.1904M3.37248 11.0833C3.24581 10.5766 3.16665 10.0462 3.16665 9.49998C3.16665 8.95373 3.24581 8.42331 3.37248 7.91665H6.04831C5.98498 8.43915 5.93748 8.96165 5.93748 9.49998C5.93748 10.0383 5.98498 10.5608 6.04831 11.0833H3.37248ZM4.02165 12.6666H6.33331C6.6104 13.6562 6.96665 14.6062 7.44165 15.485C5.99972 14.9875 4.78548 13.9869 4.02165 12.6666M6.33331 6.33331H4.02165C4.78074 5.00902 5.99669 4.00699 7.44165 3.51498C6.96665 4.39373 6.6104 5.34373 6.33331 6.33331ZM11.3525 11.0833H7.64748C7.56831 10.5608 7.52081 10.0383 7.52081 9.49998C7.52081 8.96165 7.56831 8.43123 7.64748 7.91665H11.3525C11.4237 8.43123 11.4791 8.96165 11.4791 9.49998C11.4791 10.0383 11.4237 10.5608 11.3525 11.0833ZM11.5504 3.51498C13.0071 4.01373 14.2183 5.01915 14.9783 6.33331H12.6429C12.3951 5.3528 12.0282 4.40631 11.5504 3.51498M17.8125 13.6562L14.0521 17.4166L11.875 15.0416L12.7933 14.1233L14.0521 15.3821L16.8941 12.54L17.8125 13.6562V13.6562Z" fill="#3572FF"/>
</svg>
