<svg width="19" height="19" viewBox="0 0 19 19" fill="none" xmlns="http://www.w3.org/2000/svg">
<path d="M3.86908 1.54761H12.381C12.9967 1.54761 13.5871 1.79219 14.0225 2.22754C14.4578 2.66289 14.7024 3.25335 14.7024 3.86903V14.7024C14.7024 14.9076 14.6209 15.1044 14.4758 15.2495C14.3306 15.3946 14.1338 15.4762 13.9286 15.4762H11.6072" stroke="#3572FF" stroke-width="1.74731" stroke-linecap="round" stroke-linejoin="round"/>
<path d="M9.28574 9.2857V10.8333M3.86908 1.54761L9.74074 2.72225C10.2669 2.82742 10.7404 3.11163 11.0807 3.52654C11.421 3.94145 11.607 4.46142 11.6072 4.99802V16.0797C11.6071 16.1942 11.5816 16.3072 11.5326 16.4106C11.4836 16.514 11.4123 16.6053 11.3238 16.6778C11.2353 16.7503 11.1318 16.8023 11.0207 16.83C10.9097 16.8578 10.7939 16.8605 10.6817 16.8381L5.11336 15.7253C4.7624 15.6552 4.44659 15.4656 4.21972 15.1887C3.99285 14.9119 3.86894 14.565 3.86908 14.2071V1.54761Z" stroke="#3572FF" stroke-width="1.74731" stroke-linecap="round" stroke-linejoin="round"/>
</svg>
