<svg width="24" height="24" viewBox="0 0 24 24" fill="none" xmlns="http://www.w3.org/2000/svg">
<path d="M12.815 12.1971L5.28302 13.4521C5.19642 13.4665 5.11516 13.5035 5.0474 13.5593C4.97964 13.6151 4.92778 13.6878 4.89702 13.7701L2.30002 20.7281C2.05202 21.3681 2.72102 21.978 3.33502 21.67L21.335 12.6701C21.4594 12.6077 21.564 12.512 21.6371 12.3935C21.7102 12.2751 21.749 12.1387 21.749 11.9996C21.749 11.8604 21.7102 11.724 21.6371 11.6056C21.564 11.4871 21.4594 11.3914 21.335 11.3291L3.33502 2.32905C2.72102 2.02205 2.05202 2.63205 2.30002 3.27105L4.89802 10.2291C4.92878 10.3113 4.98064 10.384 5.0484 10.4398C5.11616 10.4956 5.19742 10.5326 5.28402 10.5471L12.816 11.8021C12.863 11.8096 12.9058 11.8336 12.9367 11.8698C12.9675 11.906 12.9845 11.952 12.9845 11.9996C12.9845 12.0471 12.9675 12.0932 12.9367 12.1293C12.9058 12.1655 12.863 12.1896 12.816 12.1971H12.815Z" fill="#3572FF"/>
</svg>
